<svg xmlns="http://www.w3.org/2000/svg" viewBox="0 0 600 600" width="600" height="600">
  <defs>
    <linearGradient id="plaid_sherpa_cosy_bg" x1="0%" y1="0%" x2="100%" y2="100%">
      <stop offset="0%" style="stop-color:#fce4ec"/>
      <stop offset="100%" style="stop-color:#f8bbd0"/>
    </linearGradient>
    <linearGradient id="plaid_sherpa_cosy_s" x1="0%" y1="0%" x2="100%" y2="100%">
      <stop offset="0%" style="stop-color:white;stop-opacity:0.3"/>
      <stop offset="100%" style="stop-color:white;stop-opacity:0.05"/>
    </linearGradient>
    <filter id="shadow" x="-20%" y="-20%" width="140%" height="140%">
      <feDropShadow dx="0" dy="8" stdDeviation="15" flood-opacity="0.2"/>
    </filter>
  </defs>
  <!-- Background -->
  <rect width="600" height="600" rx="24" fill="url(#plaid_sherpa_cosy_bg)"/>
  <!-- Decorative shape -->
  <path d="M0,350 Q150,250 300,350 Q450,450 600,350 L600,600 L0,600 Z" fill="url(#plaid_sherpa_cosy_s)" opacity="0.3"/>
  <!-- Subtle dots pattern -->
  <circle cx="80" cy="80" r="4" fill="white" opacity="0.1"/>
  <circle cx="520" cy="80" r="4" fill="white" opacity="0.1"/>
  <circle cx="80" cy="520" r="4" fill="white" opacity="0.1"/>
  <circle cx="520" cy="520" r="4" fill="white" opacity="0.1"/>
  <circle cx="300" cy="60" r="3" fill="white" opacity="0.08"/>
  <circle cx="60" cy="300" r="3" fill="white" opacity="0.08"/>
  <circle cx="540" cy="300" r="3" fill="white" opacity="0.08"/>
  <circle cx="300" cy="540" r="3" fill="white" opacity="0.08"/>
  <!-- Main emoji icon -->
  <text x="300" y="360" font-size="160" text-anchor="middle" filter="url(#shadow)">🧶</text>
  <!-- Product label bar -->
  <rect x="0" y="490" width="600" height="110" rx="0" fill="black" opacity="0.35"/>
  <rect x="0" y="574" width="600" height="26" rx="0" fill="black" opacity="0.2"/>
</svg>