<svg xmlns="http://www.w3.org/2000/svg" width="800" height="400" viewBox="0 0 800 400">
  <defs>
    <linearGradient id="bgGrad" x1="0" y1="0" x2="1" y2="1">
      <stop offset="0%" stop-color="#1A1A2E"/>
      <stop offset="100%" stop-color="#16213E"/>
    </linearGradient>
  </defs>
  <rect width="800" height="400" fill="url(#bgGrad)"/>
  <!-- Lamp 1 -->
  <rect x="130" y="120" width="4" height="160" fill="#9CA3AF"/>
  <circle cx="132" cy="110" r="35" fill="#F59E0B" opacity="0.15"/>
  <circle cx="132" cy="110" r="25" fill="#F59E0B" opacity="0.3"/>
  <circle cx="132" cy="110" r="15" fill="#F59E0B" opacity="0.6"/>
  <path d="M115 110 L132 80 L149 110" fill="none" stroke="#D4A574" stroke-width="2"/>
  <!-- Lamp 2 -->
  <rect x="330" y="80" width="4" height="200" fill="#9CA3AF"/>
  <circle cx="332" cy="70" r="45" fill="#3B82F6" opacity="0.15"/>
  <circle cx="332" cy="70" r="30" fill="#3B82F6" opacity="0.3"/>
  <circle cx="332" cy="70" r="15" fill="#3B82F6" opacity="0.6"/>
  <ellipse cx="332" cy="65" rx="40" ry="20" fill="none" stroke="#D4A574" stroke-width="2"/>
  <!-- Lamp 3 -->
  <rect x="530" y="100" width="4" height="180" fill="#9CA3AF"/>
  <circle cx="532" cy="90" r="40" fill="#EC4899" opacity="0.15"/>
  <circle cx="532" cy="90" r="28" fill="#EC4899" opacity="0.3"/>
  <circle cx="532" cy="90" r="14" fill="#EC4899" opacity="0.6"/>
  <rect x="510" y="80" width="44" height="25" rx="12" fill="none" stroke="#D4A574" stroke-width="2"/>
  <!-- Lamp 4 -->
  <rect x="680" y="140" width="4" height="140" fill="#9CA3AF"/>
  <circle cx="682" cy="130" r="30" fill="#10B981" opacity="0.15"/>
  <circle cx="682" cy="130" r="20" fill="#10B981" opacity="0.3"/>
  <circle cx="682" cy="130" r="10" fill="#10B981" opacity="0.6"/>
  <!-- Floor line -->
  <line x1="50" y1="280" x2="750" y2="280" stroke="#374151" stroke-width="1"/>
  <!-- Text -->
  <text x="400" y="340" font-family="Arial, sans-serif" font-size="28" fill="#FFFFFF" text-anchor="middle" font-weight="bold">Top 10 Lampes Design</text>
  <text x="400" y="370" font-family="Arial, sans-serif" font-size="16" fill="#9CA3AF" text-anchor="middle">Guide d'achat 2025</text>
</svg>
